<svg width="23" height="18" viewBox="0 0 23 18" fill="none" xmlns="http://www.w3.org/2000/svg">
<path d="M22.5201 5.85844C21.6933 3.66951 19.164 0 11.5203 0C5.28104 0 0.117133 4.12085 0.00172737 7.53335C-0.0285503 8.43022 0.304189 10.4693 3.82017 10.9636C3.78221 11.1622 3.76307 11.3774 3.76307 11.6124C3.76307 13.0674 5.4053 15.0961 8.07907 15.0961C9.00483 15.0961 9.69484 14.9529 10.2729 14.7346L12.6987 17.7828C12.8117 17.9257 12.9789 17.9996 13.1456 17.9996C13.2721 17.9996 13.3998 17.9578 13.5052 17.8714C13.7517 17.6698 13.7908 17.3044 13.5926 17.0551L11.3256 14.2062C11.5146 14.0897 11.7001 13.9697 11.8856 13.847C12.0746 13.722 12.2666 13.5966 12.4679 13.4731L15.6492 17.7673C15.7623 17.9195 15.9348 18 16.1084 18C16.2284 18 16.3492 17.9624 16.4523 17.8843C16.7053 17.6915 16.757 17.3277 16.5676 17.071L15.9144 16.1892C16.6546 16.1846 17.4524 15.9771 18.1604 15.6272C19.8413 14.7965 20.677 13.4162 20.3167 12.1404C20.8698 11.9492 21.4563 11.5815 22.2265 10.8832C23.0116 10.1709 23.3466 8.04697 22.5201 5.85844ZM17.6575 14.5836C16.5527 15.1271 15.1516 15.2509 14.6862 14.5313L13.5056 12.9377C14.0537 12.7074 14.7131 12.51 15.5882 12.3815C16.8429 12.1957 17.6851 12.2522 18.364 12.2964C18.663 12.3165 18.9321 12.3274 19.1912 12.3242C19.1958 12.3412 19.1932 12.3587 19.1997 12.3757C19.5159 13.218 18.6534 14.0912 17.6575 14.5836ZM21.4602 10.0192C20.1036 11.2497 19.6121 11.2168 18.4391 11.1386C18.2313 11.1247 18.0033 11.1119 17.7598 11.1022C17.5935 10.594 17.327 10.138 17.0736 9.71067C16.4891 8.72402 16.1797 8.12209 16.6209 7.22716C16.762 6.94034 16.6477 6.59197 16.3645 6.44795C16.0812 6.30511 15.7385 6.42201 15.5951 6.70769C14.8503 8.21576 15.538 9.37622 16.0904 10.3083C16.2556 10.587 16.3936 10.8533 16.5113 11.1192C16.1809 11.1401 15.827 11.1722 15.423 11.2315C13.2579 11.55 12.1957 12.2545 11.2584 12.8746C10.3634 13.4665 9.65647 13.9349 8.07943 13.9349C6.02972 13.9349 4.91039 12.4005 4.91039 11.6124C4.91039 9.98741 6.43721 9.87052 8.95074 9.87052C10.6547 9.87052 12.2643 9.87052 13.0448 8.8885C13.4458 8.38491 13.5554 7.69669 13.3706 6.84395C13.3123 6.57183 13.0751 6.38681 12.8106 6.38681C12.7703 6.38681 12.7289 6.39143 12.6883 6.40037C12.3782 6.4685 12.1819 6.77813 12.2501 7.0909C12.3567 7.58401 12.3229 7.94364 12.1504 8.16042C11.7146 8.70928 10.246 8.70928 8.95034 8.70928C7.34414 8.70928 5.30328 8.70928 4.32846 9.85582C2.98753 9.71765 1.09118 9.22993 1.14716 7.57322C1.17438 6.77972 1.63897 5.85073 2.44209 4.95C2.63067 6.0373 3.27854 6.9295 4.0406 7.23106C4.22653 7.30382 4.43161 7.34682 4.64436 7.34682C5.23931 7.34682 5.89329 7.01124 6.36057 6.06638C6.50163 5.77956 6.38739 5.43119 6.10411 5.28717C5.82083 5.14433 5.47812 5.26122 5.33477 5.54691C5.07485 6.07527 4.78236 6.27268 4.45771 6.14921C3.94137 5.94445 3.38015 4.96669 3.57413 3.88597C4.99821 2.7437 6.96473 1.77601 9.23793 1.36994C9.11336 1.77792 8.84616 2.2641 8.62151 2.65969C8.16995 3.4501 7.78124 4.13405 8.11281 4.71662C8.30678 5.05456 8.6809 5.22561 9.22639 5.22561C9.5434 5.22561 9.79987 4.96588 9.79987 4.645C9.79987 4.30942 9.48977 4.09146 9.18385 4.0632C9.27356 3.83871 9.47175 3.4907 9.6151 3.23872C9.97964 2.59809 10.3795 1.89363 10.4508 1.20537C10.8019 1.17634 11.1588 1.16124 11.5207 1.16124C18.4779 1.16124 20.7273 4.36353 21.4488 6.27223C22.1326 8.08335 21.8155 9.69711 21.4602 10.0192Z" fill="white"/>
<path d="M16.3649 3.42487C14.8054 2.8067 12.9026 2.86707 12.1543 4.38521C12.0132 4.67203 12.1275 5.0204 12.4107 5.16442C12.6963 5.30957 13.0379 5.19268 13.1801 4.90468C13.6044 4.04732 14.912 4.09839 15.947 4.5056C16.9866 4.91707 17.9657 5.79262 17.7338 6.60707C17.6463 6.91557 17.8212 7.23764 18.1259 7.32586C18.1785 7.34174 18.2325 7.34868 18.285 7.34868C18.535 7.34868 18.7634 7.18302 18.8363 6.92909C19.2805 5.36841 17.8668 4.01788 16.3649 3.42487Z" fill="white"/>
</svg>
