<svg width="19" height="30" viewBox="0 0 19 30" fill="none" xmlns="http://www.w3.org/2000/svg">
<path d="M19 12.8571H0V21.7582H9.86538V30L19 21.7582V12.8571Z" fill="black"/>
<path d="M19 10.2198V0.659341L18.2692 0L17.5385 0.659341L16.8077 0L16.0769 0.659341L15.3462 0L14.6154 0.659341L13.8846 0L13.1538 0.659341L12.4231 0L11.6923 0.659341L10.9615 0L10.2308 0.659341L9.5 0L8.76923 0.659341L8.03846 0L7.30769 0.659341L6.57692 0L5.84615 0.659341L5.11538 0L4.38462 0.659341L3.65385 0L2.92308 0.659341L2.19231 0L1.46154 0.659341L0.730769 0L0 0.659341V10.2198H19Z" fill="black"/>
</svg>
