<svg width="1120" height="223" viewBox="0 0 1120 223" fill="none" xmlns="http://www.w3.org/2000/svg">
<path d="M0 173.348V7.99322H63.2999C75.2493 7.99322 85.1803 9.87715 93.0928 13.645C101.059 17.359 107.007 22.4456 110.936 28.9048C114.919 35.364 116.911 42.6844 116.911 50.866C116.911 57.5943 115.619 63.3537 113.035 68.1442C110.452 72.881 106.98 76.7296 102.62 79.69C98.2601 82.6505 93.3888 84.7766 88.0062 86.0685V87.6832C93.8733 88.0062 99.4981 89.8094 104.881 93.0928C110.317 96.3224 114.758 100.898 118.203 106.819C121.648 112.739 123.37 119.898 123.37 128.295C123.37 136.854 121.298 144.551 117.153 151.387C113.009 158.169 106.765 163.525 98.4216 167.454C90.0785 171.383 79.5824 173.348 66.9332 173.348H0ZM29.9544 148.319H62.1695C73.0425 148.319 80.8742 146.246 85.6647 142.102C90.5091 137.903 92.9313 132.521 92.9313 125.954C92.9313 121.056 91.7202 116.642 89.298 112.713C86.8758 108.729 83.431 105.607 78.9634 103.347C74.4958 101.032 69.1669 99.8749 62.9769 99.8749H29.9544V148.319ZM29.9544 78.3175H59.5859C64.7532 78.3175 69.4092 77.3755 73.5538 75.4916C77.6984 73.5538 80.9549 70.8356 83.3233 67.3369C85.7455 63.7843 86.9566 59.5858 86.9566 54.7415C86.9566 48.3361 84.6959 43.0611 80.1745 38.9165C75.7069 34.7719 69.0593 32.6995 60.2318 32.6995H29.9544V78.3175Z" fill="black"/>
<path d="M148.137 173.348V49.3319H176.477V70.0013H177.768C180.029 62.8424 183.905 57.3251 189.395 53.4496C194.939 49.5203 201.264 47.5556 208.369 47.5556C209.984 47.5556 211.787 47.6364 213.778 47.7979C215.824 47.9055 217.519 48.0939 218.865 48.363V75.2493C217.627 74.8187 215.662 74.4419 212.971 74.119C210.333 73.7422 207.777 73.5538 205.301 73.5538C199.972 73.5538 195.181 74.7111 190.929 77.0256C186.731 79.2863 183.42 82.4352 180.998 86.4722C178.576 90.5091 177.365 95.1651 177.365 100.44V173.348H148.137Z" fill="black"/>
<path d="M271.749 175.851C263.891 175.851 256.813 174.451 250.515 171.652C244.271 168.8 239.319 164.601 235.659 159.057C232.052 153.513 230.249 146.677 230.249 138.549C230.249 131.552 231.541 125.765 234.125 121.19C236.708 116.615 240.234 112.955 244.702 110.21C249.169 107.464 254.202 105.392 259.8 103.993C265.452 102.539 271.292 101.49 277.32 100.844C284.587 100.09 290.481 99.4174 295.002 98.8253C299.524 98.1794 302.807 97.2105 304.853 95.9187C306.952 94.573 308.002 92.5007 308.002 89.7017V89.2173C308.002 83.1349 306.198 78.4251 302.592 75.0879C298.986 71.7506 293.791 70.082 287.009 70.082C279.85 70.082 274.172 71.643 269.973 74.7649C265.828 77.8868 263.03 81.5739 261.576 85.8262L234.286 81.9507C236.439 74.415 239.992 68.1173 244.944 63.0577C249.896 57.9441 255.951 54.1225 263.11 51.5926C270.269 49.009 278.182 47.7171 286.848 47.7171C292.822 47.7171 298.77 48.4169 304.691 49.8164C310.612 51.2158 316.022 53.5304 320.92 56.76C325.818 59.9357 329.747 64.2687 332.708 69.759C335.722 75.2493 337.229 82.1122 337.229 90.3476V173.348H309.132V156.312H308.163C306.387 159.757 303.884 162.986 300.654 166.001C297.478 168.961 293.468 171.356 288.624 173.187C283.833 174.963 278.209 175.851 271.749 175.851ZM279.339 154.374C285.206 154.374 290.293 153.217 294.599 150.902C298.905 148.534 302.215 145.412 304.53 141.537C306.898 137.661 308.082 133.436 308.082 128.86V114.247C307.167 115 305.606 115.7 303.399 116.346C301.246 116.992 298.824 117.557 296.133 118.041C293.441 118.526 290.777 118.956 288.14 119.333C285.502 119.71 283.214 120.033 281.277 120.302C276.917 120.894 273.014 121.863 269.569 123.209C266.125 124.554 263.406 126.438 261.415 128.86C259.423 131.229 258.427 134.297 258.427 138.065C258.427 143.447 260.392 147.511 264.321 150.256C268.251 153.002 273.257 154.374 279.339 154.374Z" fill="black"/>
<path d="M395.846 100.682V173.348H366.618V49.3319H394.554V70.405H396.008C398.861 63.4614 403.409 57.9441 409.653 53.8533C415.95 49.7625 423.728 47.7171 432.986 47.7171C441.545 47.7171 449 49.5472 455.351 53.2074C461.757 56.8676 466.709 62.1695 470.207 69.1131C473.76 76.0567 475.509 84.4806 475.456 94.3846V173.348H446.228V98.9061C446.228 90.6168 444.075 84.1307 439.769 79.4478C435.516 74.7649 429.622 72.4234 422.087 72.4234C416.973 72.4234 412.425 73.5538 408.442 75.8145C404.512 78.0214 401.417 81.2241 399.157 85.4225C396.95 89.621 395.846 94.7076 395.846 100.682Z" fill="black"/>
<path d="M551.189 175.528C541.447 175.528 532.727 173.025 525.03 168.019C517.332 163.013 511.25 155.747 506.783 146.219C502.315 136.692 500.081 125.12 500.081 111.501C500.081 97.7219 502.342 86.0954 506.863 76.6219C511.438 67.0946 517.602 59.9088 525.353 55.0644C533.104 50.1662 541.743 47.7171 551.27 47.7171C558.537 47.7171 564.511 48.9551 569.194 51.4311C573.877 53.8533 577.591 56.7869 580.336 60.2318C583.081 63.6228 585.208 66.8255 586.715 69.8398H587.926V7.99322H617.234V173.348H588.491V153.809H586.715C585.208 156.823 583.028 160.026 580.175 163.417C577.322 166.754 573.554 169.607 568.871 171.975C564.188 174.344 558.294 175.528 551.189 175.528ZM559.344 151.548C565.534 151.548 570.809 149.88 575.169 146.542C579.529 143.151 582.839 138.442 585.1 132.413C587.361 126.384 588.491 119.36 588.491 111.34C588.491 103.32 587.361 96.3493 585.1 90.4284C582.893 84.5075 579.61 79.9053 575.25 76.6219C570.944 73.3385 565.642 71.6968 559.344 71.6968C552.831 71.6968 547.395 73.3923 543.035 76.7834C538.675 80.1745 535.391 84.8574 533.184 90.8321C530.977 96.8068 529.874 103.643 529.874 111.34C529.874 119.091 530.977 126.008 533.184 132.09C535.445 138.119 538.755 142.882 543.115 146.381C547.529 149.826 552.939 151.548 559.344 151.548Z" fill="black"/>
<path d="M649.671 173.348V7.99322H679.626V83.9692H681.644L746.155 7.99322H782.73L718.785 82.1929L783.296 173.348H747.286L697.954 102.459L679.626 124.097V173.348H649.671Z" fill="black"/>
<path d="M810.02 173.348V49.3319H839.248V173.348H810.02ZM824.715 31.7307C820.086 31.7307 816.103 30.1966 812.766 27.1285C809.428 24.0066 807.76 20.2656 807.76 15.9057C807.76 11.4919 809.428 7.751 812.766 4.68289C816.103 1.56096 820.086 0 824.715 0C829.398 0 833.381 1.56096 836.664 4.68289C840.002 7.751 841.67 11.4919 841.67 15.9057C841.67 20.2656 840.002 24.0066 836.664 27.1285C833.381 30.1966 829.398 31.7307 824.715 31.7307Z" fill="black"/>
<path d="M898.531 100.682V173.348H869.303V49.3319H897.239V70.405H898.693C901.545 63.4614 906.094 57.9441 912.338 53.8533C918.635 49.7625 926.413 47.7171 935.671 47.7171C944.23 47.7171 951.685 49.5472 958.036 53.2074C964.442 56.8676 969.394 62.1695 972.892 69.1131C976.445 76.0567 978.194 84.4806 978.14 94.3846V173.348H948.913V98.9061C948.913 90.6168 946.76 84.1307 942.453 79.4478C938.201 74.7649 932.307 72.4234 924.772 72.4234C919.658 72.4234 915.11 73.5538 911.127 75.8145C907.197 78.0214 904.102 81.2241 901.841 85.4225C899.635 89.621 898.531 94.7076 898.531 100.682Z" fill="black"/>
<path d="M1061.79 222.438C1051.29 222.438 1042.27 221.011 1034.74 218.158C1027.2 215.36 1021.15 211.592 1016.57 206.855C1012 202.118 1008.82 196.87 1007.05 191.111L1033.37 184.732C1034.55 187.154 1036.27 189.55 1038.53 191.918C1040.79 194.34 1043.84 196.332 1047.66 197.893C1051.53 199.508 1056.4 200.315 1062.27 200.315C1070.56 200.315 1077.42 198.297 1082.86 194.26C1088.3 190.276 1091.01 183.71 1091.01 174.559V151.064H1089.56C1088.05 154.078 1085.85 157.173 1082.94 160.349C1080.09 163.525 1076.29 166.189 1071.56 168.342C1066.87 170.495 1060.98 171.572 1053.87 171.572C1044.35 171.572 1035.71 169.338 1027.96 164.87C1020.26 160.349 1014.12 153.621 1009.55 144.685C1005.03 135.696 1002.77 124.447 1002.77 110.936C1002.77 97.3182 1005.03 85.8262 1009.55 76.4604C1014.12 67.0408 1020.29 59.9088 1028.04 55.0644C1035.79 50.1662 1044.43 47.7171 1053.95 47.7171C1061.22 47.7171 1067.2 48.9551 1071.88 51.4311C1076.62 53.8533 1080.38 56.7869 1083.18 60.2318C1085.98 63.6228 1088.11 66.8255 1089.56 69.8398H1091.18V49.3319H1120V175.366C1120 185.97 1117.47 194.744 1112.41 201.688C1107.35 208.631 1100.43 213.825 1091.66 217.27C1082.89 220.715 1072.93 222.438 1061.79 222.438ZM1062.03 148.642C1068.22 148.642 1073.49 147.135 1077.85 144.12C1082.21 141.106 1085.52 136.773 1087.78 131.121C1090.05 125.469 1091.18 118.687 1091.18 110.775C1091.18 102.97 1090.05 96.134 1087.78 90.2669C1085.58 84.3998 1082.29 79.8515 1077.93 76.6219C1073.63 73.3385 1068.33 71.6968 1062.03 71.6968C1055.52 71.6968 1050.08 73.3923 1045.72 76.7834C1041.36 80.1745 1038.08 84.8304 1035.87 90.7514C1033.66 96.6184 1032.56 103.293 1032.56 110.775C1032.56 118.364 1033.66 125.012 1035.87 130.717C1038.13 136.369 1041.44 140.783 1045.8 143.959C1050.21 147.081 1055.62 148.642 1062.03 148.642Z" fill="black"/>
</svg>
