<svg width="18" height="19" viewBox="0 0 18 19" fill="none" xmlns="http://www.w3.org/2000/svg">
<path d="M14.6952 7.07992L11.881 4.25602M1.08394 17.914C1.86253 18.6953 3.11953 18.6953 3.89811 17.914L16.0929 5.67711C16.8714 4.89583 16.8714 3.63448 16.0929 2.8532C15.3143 2.07192 14.0573 2.07192 13.2787 2.8532L1.08394 15.0901C0.305353 15.8714 0.305353 17.1328 1.08394 17.914ZM5.77428 0.914173L7.18137 0.5L6.76862 1.91195L7.18137 3.32391L5.77428 2.90973L4.3672 3.32391L4.77994 1.91195L4.3672 0.5L5.77428 0.914173ZM2.02205 6.56199L3.42914 6.14781L3.01639 7.55977L3.42914 8.97172L2.02205 8.55755L0.614967 8.97172L1.02771 7.55977L0.614967 6.14781L2.02205 6.56199ZM16.0929 11.2685L17.5 10.8543L17.0873 12.2663L17.5 13.6782L16.0929 13.2641L14.6858 13.6782L15.0986 12.2663L14.6858 10.8543L16.0929 11.2685Z" stroke="white" stroke-linecap="round" stroke-linejoin="round"/>
</svg>
