<svg width="20" height="20" viewBox="0 0 20 20" fill="none" xmlns="http://www.w3.org/2000/svg">
<path d="M9.51923 12.7501L6.75 9.9809M9.51923 12.7501C10.8086 12.2597 12.0456 11.6412 13.2115 10.904M9.51923 12.7501V17.3654C9.51923 17.3654 12.3162 16.8577 13.2115 15.5193C14.2085 14.0239 13.2115 10.904 13.2115 10.904M6.75 9.9809C7.24121 8.70652 7.85972 7.48495 8.59615 6.33476C9.67172 4.61509 11.1693 3.19916 12.9466 2.22167C14.7239 1.24419 16.7217 0.737647 18.75 0.750229C18.75 3.26096 18.03 7.6732 13.2115 10.904M6.75 9.9809H2.13462C2.13462 9.9809 2.64231 7.18398 3.98077 6.28861C5.47615 5.2917 8.59615 6.28861 8.59615 6.28861M2.59615 14.1347C1.21154 15.2977 0.75 18.75 0.75 18.75C0.75 18.75 4.20231 18.2885 5.36538 16.9039C6.02077 16.1285 6.01154 14.9377 5.28231 14.2178C4.92352 13.8753 4.45088 13.6774 3.95514 13.6621C3.45938 13.6468 2.97543 13.815 2.59615 14.1347Z" stroke="white" stroke-width="1.5" stroke-linecap="round" stroke-linejoin="round"/>
</svg>
